<?xml version="1.0" encoding="UTF-8"?>
<svg width="42px" height="48px" viewBox="0 0 42 48" version="1.1" xmlns="http://www.w3.org/2000/svg" xmlns:xlink="http://www.w3.org/1999/xlink">
    <!-- Generator: Sketch 49.3 (51167) - http://www.bohemiancoding.com/sketch -->
    <title>drupal_icon</title>
    <desc>Created with Sketch.</desc>
    <defs></defs>
    <g id="Page-1" stroke="none" stroke-width="1" fill="none" fill-rule="evenodd">
        <g id="Desktop-HD" transform="translate(-363.000000, -2695.000000)" fill="#0073BA" fill-rule="nonzero">
            <g id="Group-13" transform="translate(234.000000, 2679.000000)">
                <g id="Group-10" transform="translate(110.000000, 0.000000)">
                    <path d="M50.4451203,24.9251521 C47.9949749,23.3980428 45.6823592,22.7976726 43.3708014,21.2716213 C41.9367892,20.3009786 39.9489553,17.9883629 38.2832584,16 C37.9600635,19.1901613 36.9888918,20.4850569 35.8791325,21.4102089 C33.5204972,23.2599841 32.0404655,23.8153928 30.006083,24.925681 C28.2948955,25.8037556 19,31.3525522 19,43.2827294 C19,55.2144935 29.0349114,64 40.1790532,64 C51.3247818,64 60.9894208,55.9074319 60.9894208,43.6530019 C60.9894208,31.3985718 51.925681,25.8497752 50.4451203,24.9251521 Z M50.7133034,59.6482412 C50.4816186,59.8799259 48.3541391,61.3588998 45.8574451,61.5905845 C43.3596932,61.8222692 39.9843957,61.9608569 37.9494843,60.1110817 C37.6262893,59.7873578 37.7188574,59.3250463 37.9494843,59.140439 C38.181169,58.9547739 38.3663052,58.8161862 38.6434806,58.8161862 C38.9206559,58.8161862 38.8751653,58.8161862 39.013753,58.9087543 C39.9378471,59.6482412 41.3253108,60.2496694 44.2848453,60.2496694 C47.2454377,60.2496694 49.3258397,59.4170854 50.2499339,58.7236181 C50.6672838,58.3998942 50.8513621,58.6775985 50.8973816,58.8627347 C50.9439302,59.047342 51.0364983,59.3245173 50.7133034,59.6482412 Z M42.6196773,55.4398307 C43.1290664,54.9775192 43.9616504,54.2380323 44.7471568,53.9137794 C45.5326633,53.5905845 45.9500132,53.6366041 46.6895001,53.6366041 C47.428987,53.6366041 48.2150225,53.6820947 48.7709601,54.0528961 C49.3258397,54.4221106 49.6495636,55.2546945 49.8341709,55.717535 C50.0193071,56.1798466 49.8341709,56.456493 49.4649564,56.6416292 C49.1412325,56.8272944 49.0946839,56.7341973 48.7709601,56.133827 C48.4472362,55.5318699 48.1690029,54.9309706 46.5509125,54.9309706 C44.9317641,54.9309706 44.4239619,55.4863793 43.6373975,56.133827 C42.8513621,56.7812748 42.5741867,57.0124306 42.2970114,56.6416292 C42.0193071,56.2724147 42.1113462,55.9021423 42.6196773,55.4398307 Z M54.8751653,55.8101031 C53.2105263,55.6715155 49.8801904,50.4919334 47.7527109,50.3993652 C45.0714097,50.3067971 39.2438508,55.9947104 34.6662259,55.9947104 C31.8923565,55.9947104 31.0592436,55.5789474 30.1346205,54.9775192 C28.7471568,54.0063475 28.0536895,52.5263158 28.0997091,50.4919334 C28.1467866,46.8849511 31.5220841,43.5091246 35.7759852,43.462576 C41.1867231,43.4176144 44.932293,48.8278233 47.6612007,48.7812748 C49.9732875,48.7352552 54.4128537,44.2036498 56.5858239,44.2036498 C58.8979106,44.2036498 59.5464163,46.6083047 59.5464163,48.0417879 C59.5464163,49.4752711 59.0830468,52.0645332 57.9732875,53.6826236 C56.8629992,55.3012431 56.1695319,55.9021423 54.8751653,55.8101031 Z" id="drupal_icon"></path>
                </g>
            </g>
        </g>
    </g>
</svg>