<?xml version="1.0" encoding="UTF-8"?>
<svg width="568px" height="50px" viewBox="0 0 568 50" version="1.1" xmlns="http://www.w3.org/2000/svg" xmlns:xlink="http://www.w3.org/1999/xlink">
    <!-- Generator: Sketch 49.3 (51167) - http://www.bohemiancoding.com/sketch -->
    <title>featured_wordmarks</title>
    <desc>Created with Sketch.</desc>
    <defs>
        <linearGradient x1="-44.6497392%" y1="-75.2378322%" x2="177.424746%" y2="227.73603%" id="linearGradient-1">
            <stop stop-color="#5A2676" offset="0%"></stop>
            <stop stop-color="#32BCF6" offset="100%"></stop>
        </linearGradient>
    </defs>
    <g id="Page-1" stroke="none" stroke-width="1" fill="none" fill-rule="evenodd" opacity="0.504019475">
        <g id="Desktop-HD" transform="translate(-436.000000, -634.000000)" fill="url(#linearGradient-1)" fill-rule="nonzero">
            <g id="Group-6" transform="translate(436.000000, 634.000000)">
                <g id="angularjs-plain-wordmark" transform="translate(0.298822, 0.119474)">
                    <path d="M470.226217,37.0766978 L470.226217,20.2328026 L472.405476,20.2328026 L482.71795,33.8027956 L482.71795,20.2328026 L484.781485,20.2328026 L484.781485,37.0766978 L482.600925,37.0766978 L472.288452,23.3871339 L472.288452,37.0766978 L470.226217,37.0766978 Z M501.516011,36.4177584 C500.157225,36.936332 498.691816,37.1962687 497.119785,37.1962687 C491.016299,37.1962687 487.961955,34.2719813 487.961955,28.4208072 C487.961955,22.8828568 490.909676,20.1132317 496.802518,20.1132317 C498.491574,20.1132317 500.063605,20.3510738 501.516011,20.8215591 L501.516011,22.7060999 C500.063605,22.1563339 498.569591,21.880801 497.037868,21.880801 C492.442699,21.880801 490.143815,24.0616695 490.143815,28.4182078 C490.143815,33.0918689 492.406292,35.4286994 496.932545,35.4286994 C497.655498,35.4286994 498.457767,35.3351222 499.338052,35.1453685 L499.338052,29.4202637 L501.517312,29.4202637 L501.517312,36.4177584 L501.516011,36.4177584 Z M504.992944,30.5756821 L504.992944,20.2315029 L507.172204,20.2315029 L507.172204,30.5743824 C507.172204,33.8092941 508.783243,35.4286994 512.005322,35.4286994 C515.227401,35.4286994 516.838441,33.8092941 516.838441,30.5743824 L516.838441,20.2315029 L519.0177,20.2315029 L519.0177,30.5743824 C519.0177,34.9894065 516.681108,37.1962687 512.005322,37.1962687 C507.329537,37.1962687 504.992944,34.9894065 504.992944,30.5756821 Z M525.086079,20.2315029 L525.086079,35.3104282 L533.901937,35.3104282 L533.901937,37.0766978 L522.90682,37.0766978 L522.90682,20.2315029 L525.086079,20.2315029 Z M537.0499,37.0766978 L534.786123,37.0766978 L543.166389,18.0090445 L551.546656,37.0766978 L549.128146,37.0766978 L546.947586,31.7752897 L541.374612,31.7752897 L541.976639,30.0090202 L546.218133,30.0090202 L543.071469,22.3746806 L537.0499,37.0766978 Z M553.84294,37.0766978 L553.84294,20.2328026 L561.032155,20.2328026 C564.23863,20.2328026 565.839268,21.5792745 565.839268,24.2722182 C565.839268,26.4634842 564.273738,28.0867886 561.138777,29.1369327 L566.924997,37.0766978 L564.04879,37.0766978 L558.687761,29.5034434 L558.687761,28.0763911 C561.908539,27.5643159 563.519579,26.3283172 563.519579,24.3657954 C563.519579,22.8113742 562.62369,22.0341636 560.831912,22.0341636 L556.023499,22.0341636 L556.023499,37.0766978 L553.84294,37.0766978 Z M447.251675,28.1660693 L451.394348,28.1660693 L447.284182,19.5751629 L443.661619,28.1660693 L447.251675,28.1660693 Z M447.297185,7.25806452 L427.613636,14.1814773 L430.723892,39.9580956 L447.319289,49.0740741 L463.997904,39.8359254 L467.10816,14.0606068 L447.297185,7.25806452 Z M442.059681,32.0651191 L439.619067,37.9773783 L435.08111,37.872104 L447.250375,10.8113986 L459.980058,37.9773783 L455.637142,37.9201922 L452.965079,31.7830878 L447.260777,31.872766 L442.059681,32.0651191 Z M80.0271358,24.789369 L80.0260821,29.7245439 C80.0260821,32.5747378 78.166186,34.8845956 75.3157503,34.8845956 C72.463734,34.8845956 70.630709,32.5747378 70.630709,29.7245439 L70.6312359,24.7941088 L73.2635421,24.7941088 L73.2635421,29.7245439 C73.2635421,31.1670201 73.8878981,32.3340618 75.3310299,32.3340618 C76.7736349,32.3340618 77.3927221,31.1670201 77.3927221,29.7245439 L77.3879802,24.789369 L80.0271358,24.789369 Z M103.820634,21.7822354 L106.446617,21.7822354 L106.446617,34.6297002 L103.820634,34.6297002 L103.820634,21.7822354 Z M68.4852424,24.6824604 C68.8672324,24.7704098 69.1580717,24.8773184 69.5822123,25.097982 L69.5822123,28.0872097 C69.5822123,28.0872097 69.0964264,27.6016445 67.9504564,27.3309499 C65.6848606,26.7953536 64.5157078,28.8766481 64.5157078,29.309549 L64.5157078,34.6207473 L61.8791866,34.6207473 L61.8791866,24.8083281 L64.2306643,24.8083281 L64.5114928,26.5283454 C64.5114928,26.5283454 64.5215035,26.6173481 64.6036973,26.6194547 C64.7043319,26.6220879 64.7053856,26.5873294 64.7348911,26.5283454 C64.7939019,26.407744 66.2217542,24.1600302 68.4852424,24.6824604 Z M83.6051966,37.8532842 L80.961299,37.8527576 L80.961299,29.7977474 C80.961299,26.9296476 83.28854,24.6029372 86.1589972,24.6029372 C89.0289275,24.6029372 91.3566955,26.9296476 91.3566955,29.7977474 C91.3566955,32.1781754 89.7544451,34.1831066 87.5699892,34.7982261 C85.1294684,35.3928064 84.0303909,33.4979436 83.8307024,33.0013189 C83.8096271,32.9497079 83.7906593,32.8928304 83.7058312,32.8938837 C83.6109923,32.8954636 83.6062503,33.0013189 83.6062503,33.0013189 L83.6062503,34.3231938 L83.6051966,34.3226671 L83.6051966,37.8532842 Z M86.1611048,27.1692703 C84.7079622,27.1692703 83.5303792,28.3463183 83.5309061,29.7977474 C83.5309061,31.251283 84.7079622,32.4283309 86.1611048,32.4283309 C87.6142474,32.4283309 88.7923572,31.2507564 88.7923572,29.7977474 C88.7923572,28.3463183 87.6142474,27.1692703 86.1611048,27.1692703 Z M100.111379,34.6260137 L100.110325,33.0013189 C100.110325,33.0013189 100.107164,32.8954636 100.011271,32.8944103 C99.9259165,32.893357 99.9074756,32.9497079 99.8864003,33.0013189 C99.6861848,33.4984703 98.5876343,35.3928064 96.1471134,34.7982261 C93.9626576,34.1831066 92.3604071,32.178702 92.3604071,29.7977474 C92.3604071,26.9296476 94.6876482,24.6034639 97.5581054,24.6034639 C100.429089,24.6034639 102.755277,26.9296476 102.755277,29.7977474 L102.755277,34.6260137 L100.111379,34.6260137 Z M100.186197,29.7977474 C100.186197,28.3463183 99.0080867,27.1692703 97.5559979,27.1692703 C96.1028553,27.1692703 94.9247455,28.3463183 94.9247455,29.7977474 C94.9247455,31.251283 96.1028553,32.4283309 97.5559979,32.4283309 C99.0086136,32.4283309 100.186197,31.2507564 100.186197,29.7977474 Z M53.6187189,34.6054746 L50.6197023,34.6054746 L50.6197023,21.7774956 L53.8379021,21.7774956 C57.7347269,21.7774956 60.6905391,22.4921506 60.6905391,28.1909585 C60.6905391,33.8360487 57.559275,34.6054746 53.6187189,34.6054746 Z M54.3352794,24.0009839 L53.2751914,24.0009839 L53.2751914,32.3793531 L54.3637311,32.4072652 C56.5966602,32.4072652 58.0345232,32.2039809 58.0345232,28.1904318 C58.0345232,24.3427754 56.7652627,24.0009839 54.3352794,24.0009839 Z M31.4514552,10.1704023 C32.9262,11.0909749 41.9543358,16.6154638 41.9543358,28.8162105 C41.9543358,41.0169573 32.3276612,49.0740741 21.2257148,49.0740741 C10.1253492,49.0740741 0.129856611,40.3270545 0.129856611,28.4475602 C0.129856611,16.5696458 9.38824021,11.0451569 11.0927059,10.1709289 C13.1190969,9.06550453 14.5933148,8.512529 16.942685,6.67085717 C18.048085,5.74975793 19.0154417,4.46053498 19.3373671,1.28434886 C20.9965208,3.26400126 22.9765462,5.56648604 24.4049253,6.53287661 C26.7074029,8.05224271 29.0109343,8.64998292 31.4514552,10.1704023 Z M31.7185847,44.7413791 C32.0405101,44.4190734 31.9483056,44.1431123 31.9019399,43.9593137 C31.8561011,43.7749886 31.6727459,43.4985008 31.2570354,43.8208065 C30.3365713,44.511236 28.2643414,45.3401726 25.3153787,45.3401726 C22.3674697,45.3401726 20.9854563,44.7413791 20.0649922,44.0051317 C19.9269489,43.9129691 19.9722608,43.9129691 19.6961742,43.9129691 C19.4200877,43.9129691 19.2356787,44.0509497 19.0049041,44.2358015 C18.7751832,44.4196 18.6829787,44.8798863 19.0049041,45.2021921 C21.031822,47.0438639 24.3938608,46.9058834 26.8818011,46.6752136 C29.3686877,46.4445438 31.4878101,44.9720489 31.7185847,44.7413791 Z M23.6567518,40.5514046 C23.1504175,41.0116909 23.0587399,41.3803412 23.3353533,41.7479383 C23.6114399,42.1171153 23.8875265,41.8869721 24.6704742,41.2423606 C25.4539489,40.5977492 25.9597563,40.0447736 27.5725444,40.0447736 C29.1842787,40.0447736 29.461419,40.6430405 29.7838713,41.2423606 C30.1063235,41.8401009 30.1526892,41.9327901 30.4751414,41.7479383 C30.8429056,41.5636131 31.0273145,41.2881786 30.8429056,40.8278923 C30.6590235,40.3670794 30.3365713,39.5381427 29.7838713,39.1705457 C29.2301175,38.8013687 28.4471697,38.7560773 27.7105877,38.7560773 C26.9740056,38.7560773 26.5582951,38.7102594 25.7758742,39.0320385 C24.9934533,39.3548708 24.1641399,40.0911183 23.6567518,40.5514046 Z M35.8640981,40.9200549 C37.1533802,41.0116909 37.8441235,40.413424 38.9500504,38.8018953 C40.0554504,37.1908933 40.5169997,34.612974 40.5169997,33.1857705 C40.5169997,31.758567 39.8710414,29.3644463 37.5680369,29.3644463 C35.4036026,29.3644463 30.9814757,33.8761999 28.6784713,33.9220179 C25.9602832,33.9683625 22.2294265,28.5818542 16.8399429,28.6266189 C12.6027518,28.6729635 9.24071304,32.0340015 9.19382047,35.6251825 C9.14798167,37.6506529 9.83872495,39.124201 11.2207384,40.0911183 C12.1417294,40.6899118 12.9715698,41.1038534 15.7345429,41.1038534 C20.2941861,41.1038534 26.0988533,35.4408574 28.769622,35.53302 C30.8887444,35.6251825 34.2059981,40.7820743 35.8640981,40.9200549 Z M329.296745,42.2837301 C328.938359,42.2837301 328.582446,42.1898512 328.26855,42.0070343 L324.993651,40.0701634 C324.50427,39.7971733 324.742782,39.6995886 324.904673,39.6440024 C325.557181,39.4167165 325.689413,39.3636008 326.385174,38.9707915 C326.458087,38.9300283 326.553245,38.9448513 326.628629,38.9893202 L329.143504,40.4827366 C329.234954,40.5333819 329.364714,40.5333819 329.447513,40.4827366 L339.256144,34.8240596 C339.348829,34.7721791 339.406912,34.667183 339.406912,34.558481 L339.406912,23.2435975 C339.406912,23.1324251 339.348829,23.0298994 339.254908,22.9730779 L329.449985,17.3193419 C329.358535,17.2674614 329.238661,17.2674614 329.147211,17.3193419 L319.343525,22.9743131 C319.249603,23.0298994 319.189048,23.1361308 319.189048,23.2435975 L319.189048,34.558481 C319.189048,34.667183 319.249603,34.7697087 319.343525,34.8203539 L322.030177,36.3730622 C323.488434,37.1006241 324.381925,36.2433611 324.381925,35.3811571 L324.381925,24.2083272 C324.381925,24.0514505 324.509214,23.9266903 324.666162,23.9266903 L325.910623,23.9266903 C326.065099,23.9266903 326.193624,24.0514505 326.193624,24.2083272 L326.193624,35.3811571 C326.193624,37.3254394 325.134534,38.4408696 323.289468,38.4408696 C322.722231,38.4408696 322.276104,38.4408696 321.030406,37.8281859 L318.458684,36.3483572 C317.822242,35.980253 317.43049,35.2934544 317.43049,34.5597163 L317.43049,23.2448327 C317.43049,22.5098594 317.822242,21.824296 318.458684,21.4586623 L328.267314,15.7925737 C328.887691,15.4429982 329.711977,15.4429982 330.327411,15.7925737 L340.136041,21.4586623 C340.771248,21.8255313 341.165471,22.5110947 341.165471,23.2448327 L341.165471,34.5597163 C341.165471,35.2946896 340.771248,35.9777825 340.136041,36.3483572 L330.327411,42.0082695 C330.015986,42.1898512 329.661309,42.2837301 329.296745,42.2837301 Z M332.328188,34.4880718 C328.033746,34.4880718 327.135312,32.5178492 327.135312,30.8663209 C327.135312,30.7106795 327.2626,30.5834488 327.419548,30.5834488 L328.68749,30.5834488 C328.829608,30.5834488 328.94701,30.6847392 328.969255,30.8230872 C329.15957,32.1139227 329.73175,32.764899 332.328188,32.764899 C334.393228,32.764899 335.273125,32.2979748 335.273125,31.2010734 C335.273125,30.5686258 335.023492,30.1004663 331.812855,29.7854777 C329.128674,29.5198992 327.46898,28.9282147 327.46898,26.7801162 C327.46898,24.8024821 329.137325,23.6215838 331.932729,23.6215838 C335.075396,23.6215838 336.630046,24.7123089 336.82654,27.0518711 C336.833954,27.130927 336.805531,27.2087477 336.752391,27.2692749 C336.698015,27.3248612 336.623867,27.3594481 336.544775,27.3594481 L335.270654,27.3594481 C335.138422,27.3594481 335.022256,27.2668044 334.995068,27.1383385 C334.688587,25.7795643 333.9471,25.3459918 331.931493,25.3459918 C329.676138,25.3459918 329.414147,26.1328456 329.414147,26.719589 C329.414147,27.4323278 329.723099,27.6398497 332.769373,28.042541 C335.783515,28.4415265 337.21582,29.0048002 337.21582,31.1232527 C337.217056,33.2639398 335.435017,34.4880718 332.328188,34.4880718 Z M309.099889,27.0666941 L302.872639,30.688445 C302.677381,30.8020879 302.437633,30.8020879 302.242375,30.6896802 C302.048353,30.5785078 301.928479,30.3709859 301.928479,30.1449353 L301.928479,27.185278 C301.928479,26.9616979 301.808606,26.7554112 301.613347,26.6430035 L298.354514,24.7654246 C298.160492,24.6530169 297.920745,24.6530169 297.727958,24.7654246 L294.469125,26.6430035 C294.275103,26.754176 294.155229,26.9604626 294.155229,27.185278 L294.155229,30.9478473 C294.155229,31.1714275 294.275103,31.3789493 294.471597,31.491357 L304.936443,37.4946686 C305.132937,37.6070763 305.254046,37.8170687 305.25281,38.0443545 C305.251574,38.2691699 305.127993,38.4766918 304.929028,38.5878642 L298.678297,42.0613852 C298.29396,42.2738481 297.826823,42.2726129 297.446194,42.0539737 L287.111108,36.1680109 C286.71812,35.9444307 286.475901,35.5269165 286.475901,35.0760505 L286.475901,23.0743683 C286.475901,22.6259728 286.715649,22.2121643 287.103693,21.987349 L297.504277,15.9852726 C297.894793,15.7604573 298.374287,15.7616925 298.763568,15.9877431 L309.099889,21.9861137 C309.487934,22.2121643 309.725209,22.6247376 309.725209,23.0718978 L309.725209,25.9796747 C309.725209,26.4280702 309.486698,26.8406434 309.099889,27.0666941 Z M297.980064,26.5034204 C298.055448,26.4614219 298.146898,26.4614219 298.221047,26.5034204 L300.216881,27.655908 C300.29103,27.6991417 300.336755,27.7794329 300.336755,27.8646651 L300.336755,30.168405 C300.336755,30.2548725 300.29103,30.3339284 300.216881,30.3771622 L298.221047,31.5284145 C298.146898,31.5716482 298.054212,31.5716482 297.980064,31.5284145 L295.985465,30.3771622 C295.910081,30.3339284 295.864356,30.2548725 295.864356,30.168405 L295.864356,27.8646651 C295.864356,27.7794329 295.910081,27.6991417 295.985465,27.655908 L297.980064,26.5034204 Z M271.87974,0.76576608 L278.072388,4.21828786 C278.469083,4.44063273 278.716245,4.86061749 278.716245,5.31518923 L278.716245,35.2415739 C278.716245,35.6899694 278.476498,36.1037779 278.088454,36.3298285 L267.682927,42.3343753 C267.293647,42.5591907 266.814152,42.5591907 266.426107,42.3343753 L256.023052,36.3298285 C255.635008,36.1037779 255.39526,35.6899694 255.39526,35.2415739 L255.39526,23.236186 C255.39526,22.7877905 255.635008,22.3727467 256.024288,22.1479314 L266.427343,16.1470903 C266.815388,15.9235102 267.293647,15.9235102 267.681691,16.1470903 L270.28678,17.6479182 C270.422719,17.7257389 270.59079,17.7257389 270.726729,17.6479182 C270.861432,17.5688622 270.945467,17.4231028 270.945467,17.2674614 L270.945467,1.31421677 C270.945467,1.09187189 271.064105,0.886820511 271.255656,0.773177576 C271.448442,0.66076989 271.685718,0.658299391 271.87974,0.76576608 Z M270.914572,31.2961876 L270.915808,31.2961876 L270.915808,27.1729255 C270.915808,27.0617531 270.856489,26.9567569 270.760096,26.8999354 L267.187367,24.8395396 C267.089738,24.7814829 266.969864,24.7814829 266.872235,24.8395396 L263.300742,26.8999354 C263.204349,26.9567569 263.143794,27.0617531 263.143794,27.1729255 L263.143794,31.2961876 C263.143794,31.4073601 263.203113,31.511121 263.300742,31.5679425 L266.872235,33.6258678 C266.968628,33.6826893 267.088502,33.6826893 267.186131,33.6258678 L270.757624,31.5679425 C270.855253,31.511121 270.914572,31.4073601 270.914572,31.2961876 Z M235.26761,15.9210397 C235.655655,15.6962243 236.13515,15.6962243 236.523194,15.9210397 L246.926249,21.9206455 C247.314294,22.1454609 247.554041,22.5605046 247.554041,23.0089001 L247.554041,35.0179938 C247.554041,35.4663893 247.314294,35.881433 246.926249,36.1062484 L236.52443,42.1107952 C236.136385,42.3343753 235.656891,42.3343753 235.26761,42.1107952 L224.868263,36.1062484 C224.480218,35.881433 224.240471,35.4663893 224.240471,35.0179938 L224.240471,23.0076649 C224.240471,22.5605046 224.480218,22.1454609 224.868263,21.9206455 L235.26761,15.9210397 Z M216.349819,22.9088449 L216.326339,39.0164957 C216.326339,39.2400758 216.206465,39.448833 216.014914,39.5587702 C215.823364,39.6748836 215.581145,39.6748836 215.387123,39.5587702 L209.208069,36.0210162 C208.820024,35.7912598 208.579041,35.3799218 208.579041,34.9315263 L208.579041,27.4063876 C208.579041,26.9567569 208.339294,26.5429484 207.950013,26.318133 L205.320208,24.8037173 C205.128657,24.6888392 204.908683,24.6344882 204.693652,24.6344882 C204.476149,24.6344882 204.261118,24.6888392 204.06586,24.8037173 L201.433583,26.318133 C201.044303,26.5429484 200.807027,26.9567569 200.807027,27.4063876 L200.807027,34.9315263 C200.807027,35.3799218 200.568516,35.7887893 200.177999,36.0210162 L193.998946,39.5587702 C193.806159,39.6748836 193.567648,39.6748836 193.374861,39.5587702 C193.178367,39.4500682 193.060965,39.2413111 193.060965,39.0164957 L193.038721,22.9088449 C193.038721,22.4567437 193.280939,22.0416999 193.667748,21.8181198 L204.068332,15.8358075 C204.246288,15.7320465 204.444018,15.6789308 204.641748,15.6715193 L204.749263,15.6715193 C204.948229,15.6789308 205.144723,15.7320465 205.32268,15.8358075 L215.722027,21.8181198 C216.112543,22.0416999 216.349819,22.4567437 216.349819,22.9088449 Z" id="featured_wordmarks"></path>
                </g>
            </g>
        </g>
    </g>
</svg>