<svg xmlns="http://www.w3.org/2000/svg" width="21" height="20" viewBox="0 0 21 20">
  <g fill="none">
    <g fill="#4A4A4A">
        <path d="M10.4 0C12.3 0 14 0.5 15.6 1.4 17.2 2.3 18.4 3.5 19.4 5.1 20.3 6.7 20.8 8.4 20.8 10.3 20.8 12.5 20.1 14.5 18.8 16.3 17.5 18.1 15.8 19.3 13.7 20 13.4 20 13.2 20 13.1 19.9 13 19.8 12.9 19.6 12.9 19.5 12.9 19.5 12.9 19.1 13 18.5 13 17.8 13 17.2 13 16.7 13 15.8 12.7 15.2 12.3 14.8 12.8 14.7 13.2 14.6 13.6 14.5 14.1 14.4 14.5 14.3 14.9 14 15.3 13.8 15.7 13.5 16 13.1 16.3 12.8 16.5 12.3 16.7 11.7 16.9 11.1 17 10.5 17 9.7 17 8.7 16.6 7.7 15.9 7 16.3 6.2 16.2 5.2 15.8 4.2 15.6 4.2 15.2 4.2 14.7 4.4 14.3 4.6 13.8 4.8 13.5 5L13 5.3C12.1 5.1 11.3 5 10.4 5 9.5 5 8.6 5.1 7.8 5.3 7.6 5.2 7.4 5.1 7.2 4.9 7 4.8 6.6 4.6 6.1 4.4 5.6 4.2 5.2 4.2 4.9 4.2 4.5 5.2 4.5 6.2 4.8 7 4.1 7.7 3.8 8.7 3.8 9.7 3.8 10.5 3.8 11.1 4 11.7 4.2 12.3 4.5 12.8 4.7 13.1 5 13.5 5.4 13.8 5.8 14 6.3 14.3 6.7 14.4 7.1 14.5 7.5 14.6 8 14.7 8.5 14.8 8.1 15.1 7.9 15.6 7.8 16.1 7.6 16.2 7.4 16.3 7.2 16.4 7 16.4 6.7 16.4 6.4 16.4 6.1 16.4 5.9 16.3 5.6 16.1 5.3 15.9 5 15.7 4.8 15.3 4.6 15 4.4 14.8 4.2 14.6 3.9 14.4 3.7 14.3 3.5 14.3L3.2 14.2C3 14.2 2.9 14.3 2.8 14.3 2.8 14.3 2.7 14.4 2.8 14.5 2.8 14.5 2.8 14.6 2.9 14.6 2.9 14.7 3 14.8 3.1 14.8L3.1 14.9C3.3 15 3.5 15.1 3.7 15.4 3.9 15.6 4.1 15.9 4.2 16.1L4.3 16.4C4.4 16.7 4.6 17 4.9 17.2 5.2 17.4 5.5 17.5 5.8 17.6 6.1 17.6 6.4 17.7 6.7 17.7 7 17.7 7.3 17.7 7.5 17.6L7.8 17.6C7.8 17.9 7.8 18.3 7.8 18.8 7.8 19.2 7.8 19.5 7.8 19.5 7.8 19.6 7.8 19.8 7.6 19.9 7.5 20 7.3 20 7.1 20 5 19.3 3.3 18.1 2 16.3 0.7 14.5 0 12.5 0 10.3 0 8.4 0.5 6.7 1.4 5.1 2.3 3.5 3.6 2.3 5.2 1.4 6.8 0.5 8.5 0 10.4 0ZM3.9 14.7C3.9 14.8 3.8 14.8 3.8 14.7 3.7 14.7 3.6 14.7 3.7 14.6 3.7 14.5 3.7 14.5 3.8 14.6 3.9 14.6 4 14.7 3.9 14.7ZM4.4 15.2C4.3 15.2 4.2 15.2 4.1 15.1 4.1 15 4 15 4.1 14.9 4.2 14.9 4.2 14.9 4.3 15 4.4 15.1 4.4 15.1 4.4 15.2ZM4.8 15.8C4.7 15.8 4.6 15.8 4.5 15.7 4.4 15.6 4.4 15.5 4.5 15.4 4.6 15.4 4.7 15.4 4.8 15.5 4.8 15.6 4.8 15.7 4.8 15.8ZM5.3 16.3C5.3 16.4 5.2 16.4 5.1 16.3 4.9 16.2 4.9 16.1 5 16 5.1 16 5.2 16 5.3 16.1 5.4 16.2 5.4 16.3 5.3 16.3ZM6.1 16.7C6.1 16.8 6 16.8 5.8 16.8 5.7 16.7 5.6 16.6 5.7 16.6 5.7 16.5 5.8 16.4 5.9 16.5 6.1 16.5 6.1 16.6 6.1 16.7ZM6.9 16.7C6.9 16.8 6.9 16.9 6.7 16.9 6.6 16.9 6.5 16.9 6.5 16.7 6.5 16.6 6.6 16.6 6.7 16.6 6.9 16.6 6.9 16.6 6.9 16.7ZM7.7 16.6C7.7 16.7 7.7 16.8 7.5 16.8 7.4 16.8 7.3 16.8 7.3 16.7 7.3 16.6 7.3 16.5 7.5 16.5 7.6 16.5 7.7 16.5 7.7 16.6Z"/>
    </g>
  </g>
</svg>