<?xml version="1.0" encoding="UTF-8"?>
<svg width="143px" height="40px" viewBox="0 0 143 40" version="1.1" xmlns="http://www.w3.org/2000/svg" xmlns:xlink="http://www.w3.org/1999/xlink">
    <!-- Generator: Sketch 49.3 (51167) - http://www.bohemiancoding.com/sketch -->
    <title>logo</title>
    <desc>Created with Sketch.</desc>
    <defs></defs>
    <g id="Page-1" stroke="none" stroke-width="1" fill="none" fill-rule="evenodd">
        <g id="Desktop-HD" transform="translate(-697.000000, -3696.000000)" fill="#430098" fill-rule="nonzero">
            <g id="Group-2" transform="translate(600.000000, 3590.000000)">
                <g id="Group-17" transform="translate(0.000000, 106.000000)">
                    <path d="M129.3,0 L100.6,0 C98.6,0 97,1.6 97,3.6 L97,36.4 C97,38.4 98.6,40 100.6,40 L129.3,40 C131.3,40 132.9,38.4 132.9,36.4 L132.9,3.6 C132.9,1.6 131.3,0 129.3,0 Z M130.9,36.4 C130.9,37.3 130.2,38 129.3,38 L100.6,38 C99.7,38 99,37.3 99,36.4 L99,3.6 C99,2.7 99.7,2 100.6,2 L129.3,2 C130.2,2 130.9,2.7 130.9,3.6 L130.9,36.4 Z M106,34 L110.5,30 L106,26 L106,34 Z M122.2,17.8 C121.4,17 119.9,16 117.4,16 C114.7,16 111.9,16.7 109.9,17.4 L109.9,6 L106,6 L106,23.3 L108.8,22 C108.8,22 113.4,19.9 117.4,19.9 C119.4,19.9 119.9,21 119.9,22 L119.9,34 L123.9,34 L123.9,22 C123.9,21.7 123.9,19.5 122.2,17.8 Z M116.9,12.5 L120.9,12.5 C122.7,10.4 123.6,8.3 123.9,6 L119.9,6 C119.5,8.3 118.5,10.4 116.9,12.5 Z M227.4,21.9 L227.4,13 L231.4,13 L231.4,21.8 C231.4,23.8 232.1,24.8 233.7,24.8 C235.3,24.8 235.9,23.9 235.9,21.8 L235.9,13 L239.8,13 L239.8,21.9 C239.8,25.8 237.9,28.1 233.6,28.1 C229.3,28.1 227.4,25.8 227.4,21.9 Z M210.6,13.1 L214.6,13.1 L214.6,18.5 L218.7,13.1 L223.3,13.1 L218.3,18.9 L223.7,27.9 L219.2,27.9 L215.7,22 L214.6,23.3 L214.6,27.9 L210.6,27.9 L210.6,13.1 Z M191.6,20.4 C191.6,15 195.3,12.7 198.9,12.7 C202.5,12.7 206.2,15 206.2,20.4 C206.2,25.8 202.5,28.1 198.9,28.1 C195.3,28.1 191.6,25.9 191.6,20.4 Z M202.1,20.4 C202.1,17.7 200.9,16 198.8,16 C196.7,16 195.5,17.7 195.5,20.4 C195.5,23.1 196.7,24.9 198.8,24.9 C200.9,24.9 202.1,23.2 202.1,20.4 Z M175.5,13.1 L181.3,13.1 C185.1,13.1 187.4,14.4 187.4,17.9 C187.4,20.2 186.4,21.6 184.5,22.2 L187.6,27.9 L183.4,27.9 L180.5,22.8 L179.4,22.8 L179.4,27.9 L175.5,27.9 L175.5,13.1 Z M181.2,19.7 C182.8,19.7 183.6,19.2 183.6,18 C183.6,16.8 182.9,16.3 181.2,16.3 L179.5,16.3 L179.5,19.7 L181.2,19.7 Z M160.2,13.1 L170.8,13.1 L170.8,16.4 L164.2,16.4 L164.2,18.8 L168.9,18.8 L168.9,21.9 L164.2,21.9 L164.2,24.6 L171.1,24.6 L171.1,27.8 L160.2,27.8 L160.2,13.1 Z M142.1,13.1 L146.1,13.1 L146.1,18.6 L151,18.6 L151,13.1 L155,13.1 L155,27.9 L151,27.9 L151,21.9 L146.1,21.9 L146.1,27.9 L142.1,27.9 L142.1,13.1 Z" id="logo"></path>
                </g>
            </g>
        </g>
    </g>
</svg>