<?xml version="1.0" encoding="UTF-8"?>
<svg width="14px" height="20px" viewBox="0 0 14 20" version="1.1" xmlns="http://www.w3.org/2000/svg" xmlns:xlink="http://www.w3.org/1999/xlink">
    <!-- Generator: Sketch 49.3 (51167) - http://www.bohemiancoding.com/sketch -->
    <title>lightbulb</title>
    <desc>Created with Sketch.</desc>
    <defs></defs>
    <g id="Page-1" stroke="none" stroke-width="1" fill="none" fill-rule="evenodd">
        <g id="Desktop-HD" transform="translate(-507.000000, -400.000000)" fill="#FFFFFF" fill-rule="nonzero">
            <g id="Group-16" transform="translate(502.000000, 398.000000)">
                <g id="ic_lightbulb_outline_24px">
                    <path d="M9,21 C9,21.55 9.45,22 10,22 L14,22 C14.55,22 15,21.55 15,21 L15,20 L9,20 L9,21 Z M12,2 C8.14,2 5,5.14 5,9 C5,11.38 6.19,13.47 8,14.74 L8,17 C8,17.55 8.45,18 9,18 L15,18 C15.55,18 16,17.55 16,17 L16,14.74 C17.81,13.47 19,11.38 19,9 C19,5.14 15.86,2 12,2 Z M14.85,13.1 L14,13.7 L14,16 L10,16 L10,13.7 L9.15,13.1 C7.8,12.16 7,10.63 7,9 C7,6.24 9.24,4 12,4 C14.76,4 17,6.24 17,9 C17,10.63 16.2,12.16 14.85,13.1 Z" id="lightbulb"></path>
                </g>
            </g>
        </g>
    </g>
</svg>