<svg xmlns="http://www.w3.org/2000/svg" width="21" height="20" viewBox="0 0 21 20">
  <g fill="none">
    <g fill="#4A4A4A">
        <path d="M3.1 16.7L6.1 16.7 6.1 7.7 3.1 7.7 3.1 16.7ZM6.3 4.9C6.3 4.5 6.1 4.1 5.8 3.8 5.5 3.5 5.1 3.4 4.6 3.4 4.1 3.4 3.7 3.5 3.4 3.8 3.1 4.1 2.9 4.5 2.9 4.9 2.9 5.4 3.1 5.7 3.4 6 3.7 6.3 4.1 6.5 4.6 6.5L4.6 6.5C5.1 6.5 5.5 6.3 5.8 6 6.1 5.7 6.3 5.4 6.3 4.9ZM10.8 9L10.8 9 10.8 9C10.8 9 10.8 9 10.8 9L10.8 9ZM10.8 9L10.8 7.7 7.8 7.7C7.8 8.3 7.8 11.3 7.8 16.7L10.8 16.7 10.8 11.7C10.8 11.4 10.8 11.1 10.9 11 11 10.7 11.2 10.4 11.5 10.2 11.7 10 12 9.9 12.4 9.9 13.4 9.9 13.9 10.6 13.9 11.9L13.9 16.7 16.9 16.7 16.9 11.6C16.9 10.2 16.6 9.2 16 8.5 15.4 7.8 14.5 7.5 13.5 7.5 12.3 7.5 11.4 8 10.8 9L10.8 9ZM20 3.8L20 16.3C20 17.3 19.7 18.2 18.9 18.9 18.2 19.6 17.3 20 16.3 20L3.8 20C2.7 20 1.8 19.6 1.1 18.9 0.4 18.2 0 17.3 0 16.3L0 3.8C0 2.7 0.4 1.8 1.1 1.1 1.8 0.4 2.7 0 3.8 0L16.3 0C17.3 0 18.2 0.4 18.9 1.1 19.7 1.8 20 2.7 20 3.8Z"/>
    </g>
  </g>
</svg>