<?xml version="1.0" encoding="UTF-8"?>
<svg width="44px" height="60px" viewBox="0 0 44 60" version="1.1" xmlns="http://www.w3.org/2000/svg" xmlns:xlink="http://www.w3.org/1999/xlink">
    <!-- Generator: Sketch 49.3 (51167) - http://www.bohemiancoding.com/sketch -->
    <title>LogoAP</title>
    <desc>Created with Sketch.</desc>
    <defs></defs>
    <g id="Page-1" stroke="none" stroke-width="1" fill="none" fill-rule="evenodd">
        <g id="Desktop-HD" transform="translate(-17.000000, -14.000000)">
            <g id="Group-4" transform="translate(17.000000, 14.000000)">
                <g id="LogoAP">
                    <path d="M27.4564862,26.9710632 L32.346149,24.5111559 L26.9621436,15.1936763 L22.2288233,17.9241475 L27.4564862,26.9710632 Z M29.4628142,5.86894382 L42.5597215,24.3893845 L41.8742071,27.3479153 L31.2242364,33.4914755 L37.9089692,40.9424708 L37.2591339,43.9353791 L31.3424835,47.3484681 L25.3075861,36.9045645 L16.3285151,42.0842466 L17.0124629,53.0746488 L16.3285151,56.0094514 L9.49655571,59.9505471 L9.49655571,46.0253423 L3.41597968,49.5329937 L0,43.6213502 L0.686581107,40.6632281 L9.49655571,36.0064029 L9.49655571,17.4100498 L10.2391699,14.2318583 L29.4628142,5.86894382 Z M21.3444078,30.0459473 L16.3285151,21.3655181 L16.3285151,32.5693588 L21.3444078,30.0459473 Z" id="Combined-Shape" fill="#87F0FB"></path>
                    <path d="M28.4987207,24.5878214 L33.232041,21.8573502 L27.6526075,12.2016658 L22.9192872,14.932137 L28.4987207,24.5878214 Z M13.5971496,12.4517404 L30.1532782,2.87693324 L43.1902967,21.4179174 L42.5646711,24.3559047 L31.9147004,30.4994649 L38.6305153,38.0878965 L37.9495978,40.9433685 L32.0329475,44.3564575 L25.99805,33.9125539 L17.0189791,39.092236 L17.7083949,50.0842136 L17.0189791,53.0174408 L10.1870197,56.9585365 L10.1870197,43.0333317 L4.10644366,46.5409832 L0.690463979,40.6293396 L1.42037258,37.7015252 L10.1870197,35.1511404 L10.1870197,14.4180392 L10.8808893,11.4785787 L13.5971496,12.4517404 Z M22.5820703,28.0009104 L17.0189791,18.3735075 L17.0189791,31.2100447 L22.5820703,28.0009104 Z" id="Combined-Shape" fill="#ED0091"></path>
                    <path d="M23.6097512,12.0552037 L29.1891847,21.7108881 L33.922505,18.980417 L28.3430715,9.32473252 L23.6097512,12.0552037 L23.6097512,12.0552037 Z M14.2876136,9.57480716 L14.2771212,9.55664916 L30.8437422,0 L43.255135,21.4789715 L32.6051644,27.6225317 L38.6400618,38.0664353 L32.7234115,41.4795242 L26.688514,31.0356207 L17.709443,36.2153028 L17.709443,50.1405076 L10.8774837,54.0816033 L10.8774837,40.1563985 L4.79690764,43.6640499 L1.38092796,37.7524064 L10.8774837,32.2742071 L10.8774837,11.541106 L14.2876136,9.57480716 L14.2876136,9.57480716 Z M17.709443,28.3331114 L23.2725343,25.1239771 L17.709443,15.4965742 L17.709443,28.3331114 L17.709443,28.3331114 Z" id="Combined-Shape" fill="#FEFF32"></path>
                </g>
            </g>
        </g>
    </g>
</svg>