<?xml version="1.0" encoding="UTF-8"?>
<svg width="18px" height="22px" viewBox="0 0 18 22" version="1.1" xmlns="http://www.w3.org/2000/svg" xmlns:xlink="http://www.w3.org/1999/xlink">
    <!-- Generator: Sketch 49.3 (51167) - http://www.bohemiancoding.com/sketch -->
    <title>mobile_friendly</title>
    <desc>Created with Sketch.</desc>
    <defs></defs>
    <g id="Page-1" stroke="none" stroke-width="1" fill="none" fill-rule="evenodd">
        <g id="Desktop-HD" transform="translate(-778.000000, -399.000000)" fill="#FFFFFF" fill-rule="nonzero">
            <g id="Group-16" transform="translate(502.000000, 398.000000)">
                <g id="ic_mobile_friendly_24px" transform="translate(273.000000, 0.000000)">
                    <path d="M19,1 L9,1 C7.9,1 7,1.9 7,3 L7,6 L9,6 L9,4 L19,4 L19,20 L9,20 L9,18 L7,18 L7,21 C7,22.1 7.9,23 9,23 L19,23 C20.1,23 21,22.1 21,21 L21,3 C21,1.9 20.1,1 19,1 Z M7.01,13.47 L4.46,10.92 L3.19,12.19 L7,16 L14.19,8.81 L12.92,7.54 L7.01,13.47 Z" id="mobile_friendly"></path>
                </g>
            </g>
        </g>
    </g>
</svg>