<?xml version="1.0" encoding="UTF-8"?>
<svg width="42px" height="48px" viewBox="0 0 42 48" version="1.1" xmlns="http://www.w3.org/2000/svg" xmlns:xlink="http://www.w3.org/1999/xlink">
    <!-- Generator: Sketch 49.3 (51167) - http://www.bohemiancoding.com/sketch -->
    <title>nodejs_icon</title>
    <desc>Created with Sketch.</desc>
    <defs></defs>
    <g id="Page-1" stroke="none" stroke-width="1" fill="none" fill-rule="evenodd">
        <g id="Desktop-HD" transform="translate(-699.000000, -2695.000000)" fill="#83CD29" fill-rule="nonzero">
            <g id="Group-15" transform="translate(570.000000, 2679.000000)">
                <g id="Group-10" transform="translate(110.000000, 0.000000)">
                    <path d="M39.9966514,63.3600006 C39.3625097,63.3600006 38.7327414,63.1938117 38.1773207,62.8701808 L32.3825773,59.441442 C31.5166458,58.9581823 31.938678,58.7854334 32.2251352,58.6870321 C33.3797105,58.2846801 33.6136869,58.1906521 34.8447965,57.4952829 C34.9738116,57.423122 35.1421871,57.4493623 35.2755756,57.5280834 L39.7255012,60.1717984 C39.8873166,60.2614529 40.1169197,60.2614529 40.2634283,60.1717984 L57.6192315,50.1545457 C57.7832337,50.0627045 57.8860084,49.8768354 57.8860084,49.6844061 L57.8860084,29.6542742 C57.8860084,29.4574716 57.7832337,29.2759758 57.6170448,29.1753878 L40.2678017,19.1668819 C40.1059862,19.0750407 39.8938767,19.0750407 39.7320613,19.1668819 L22.3850048,29.1775745 C22.218816,29.2759758 22.1116679,29.4640317 22.1116679,29.6542742 L22.1116679,49.6844061 C22.1116679,49.8768354 22.218816,50.0583311 22.3850048,50.1479856 L27.1388811,52.896662 C29.719182,54.1846258 31.3001629,52.667059 31.3001629,51.1407454 L31.3001629,31.3620835 C31.3001629,31.0843731 31.5253926,30.8635169 31.8031029,30.8635169 L34.0051054,30.8635169 C34.2784424,30.8635169 34.5058587,31.0843731 34.5058587,31.3620835 L34.5058587,51.1407454 C34.5058587,54.5826044 32.6318606,56.5571905 29.367124,56.5571905 C28.3634307,56.5571905 27.5740336,56.5571905 25.3698444,55.4725895 L20.8193308,52.8529281 C19.6931825,52.2012928 19,50.98549 19,49.6865928 L19,29.6564609 C19,28.355377 19.6931825,27.1417609 20.8193308,26.494499 L38.175134,16.4641261 C39.2728552,15.8452913 40.7313812,15.8452913 41.8203556,16.4641261 L59.1761588,26.494499 C60.3001203,27.1439476 60.9976763,28.3575637 60.9976763,29.6564609 L60.9976763,49.6865928 C60.9976763,50.9876767 60.3001203,52.1969194 59.1761588,52.8529281 L41.8203556,62.8723675 C41.2693083,63.1938117 40.6417266,63.3600006 39.9966514,63.3600006 Z M45.3606158,49.5597645 C37.7618485,49.5597645 36.1721208,46.071985 36.1721208,43.1483729 C36.1721208,42.8728493 36.3973504,42.6476196 36.6750608,42.6476196 L38.9186105,42.6476196 C39.1700805,42.6476196 39.3778166,42.8269287 39.4171771,43.0718386 C39.7539282,45.3569355 40.7663683,46.5093241 45.3606158,46.5093241 C49.0145842,46.5093241 50.5715115,45.6827531 50.5715115,43.7409674 C50.5715115,42.6213793 50.129799,41.7926216 44.4487637,41.2350142 C39.6992608,40.7648747 36.7625286,39.7174475 36.7625286,35.9147838 C36.7625286,32.4138841 39.7145677,30.323403 44.6608732,30.323403 C50.2216402,30.323403 52.9725033,32.2542553 53.3201879,36.3958568 C53.3333081,36.5358053 53.2830141,36.6735672 53.1889862,36.7807152 C53.0927716,36.8791165 52.9615698,36.940344 52.8216213,36.940344 L50.5671381,36.940344 C50.3331617,36.940344 50.1276123,36.7763418 50.079505,36.5489255 C49.5372045,34.1435603 48.2251871,33.3760301 44.6586865,33.3760301 C40.667967,33.3760301 40.2043875,34.7689553 40.2043875,35.8076357 C40.2043875,37.0693591 40.7510614,37.4367239 46.1412661,38.1495867 C51.4746168,38.8558894 54.008997,39.8530226 54.008997,43.6032056 C54.0111837,47.3927491 50.8579686,49.5597645 45.3606158,49.5597645 Z" id="nodejs_icon"></path>
                </g>
            </g>
        </g>
    </g>
</svg>