<?xml version="1.0" encoding="UTF-8"?>
<svg width="18px" height="21px" viewBox="0 0 18 21" version="1.1" xmlns="http://www.w3.org/2000/svg" xmlns:xlink="http://www.w3.org/1999/xlink">
    <!-- Generator: Sketch 49.3 (51167) - http://www.bohemiancoding.com/sketch -->
    <title>shutter_speed</title>
    <desc>Created with Sketch.</desc>
    <defs></defs>
    <g id="Page-1" stroke="none" stroke-width="1" fill="none" fill-rule="evenodd">
        <g id="Desktop-HD" transform="translate(-641.000000, -398.000000)" fill="#FFFFFF" fill-rule="nonzero">
            <g id="Group-16" transform="translate(502.000000, 398.000000)">
                <g id="ic_shutter_speed_24px" transform="translate(139.000000, 0.000000)">
                    <path d="M12,0 L6,0 L6,2 L12,2 L12,0 Z M16.03,6.39 L17.45,4.97 C17.02,4.46 16.55,3.98 16.04,3.56 L14.62,4.98 C13.07,3.74 11.12,3 9,3 C4.03,3 0,7.03 0,12 C0,16.97 4.02,21 9,21 C13.98,21 18,16.97 18,12 C18,9.88 17.26,7.93 16.03,6.39 Z M9,19 C5.13,19 2,15.87 2,12 C2,8.13 5.13,5 9,5 C12.87,5 16,8.13 16,12 C16,15.87 12.87,19 9,19 Z M8.68,14 L3.35,14 C3.92,15.62 5.17,16.92 6.76,17.56 L6.65,17.5 L8.68,14 Z M14.65,10 C14.08,8.4 12.87,7.11 11.31,6.46 L9.26,10 L14.65,10 Z M7.61,17.83 C8.06,17.94 8.52,18 9,18 C10.34,18 11.57,17.55 12.57,16.81 L10.46,12.91 L7.61,17.83 Z M4.55,7.99 C3.59,9.05 3,10.46 3,12 C3,12.34 3.04,12.67 3.09,13 L7.81,13 L4.55,7.99 Z M13.34,16.13 C14.37,15.06 15,13.6 15,12 C15,11.66 14.96,11.33 14.91,11 L10.57,11 L13.34,16.13 Z M10.33,6.15 C9.9,6.06 9.46,6 9,6 C7.6,6 6.31,6.49 5.29,7.29 L7.61,10.85 L10.33,6.15 Z" id="shutter_speed"></path>
                </g>
            </g>
        </g>
    </g>
</svg>